<?xml version="1.0" standalone="no"?><!DOCTYPE svg PUBLIC "-//W3C//DTD SVG 1.1//EN" "http://www.w3.org/Graphics/SVG/1.1/DTD/svg11.dtd"><svg t="1752844339854" class="icon" viewBox="0 0 1024 1024" version="1.1" xmlns="http://www.w3.org/2000/svg" p-id="1800" xmlns:xlink="http://www.w3.org/1999/xlink" width="200" height="200"><path d="M652.211025 1020.1538c-16.683327-1.991963-30.598509-3.654482-45.370449-5.418996 1.63396 2.846681 3.026193 5.266003 5.324141 9.265228-31.81021-4.128759-61.781449-8.20652-91.815925-11.856922-23.197749-2.819143-46.446496-5.320061-69.718702-7.546612-17.797113-1.704337-32.940314-6.638856-45.806987-19.358656-26.696179-26.405493-27.303049-25.8537-62.508673-10.176044-10.694179 4.764188-21.506672 9.313166-32.477257 14.049815-0.457958-1.775733-1.070948-2.733467-0.771082-3.195504 15.243157-23.457837 29.287873-48.00498 54.281754-64.304806 10.425932-6.796949 22.76733-11.406104 34.734407-15.909185 16.706786-6.282894 23.475176-17.982744 20.560158-33.03721-2.753866-14.214027-8.513525-27.970097-13.421526-41.787363-1.582963-4.453103-4.901881-8.368692-7.005019-12.697361-5.456734-11.257191-7.744483-21.804497 6.635797-29.74889 3.759537-2.075599 6.006487-6.434866 7.730203-12.493371-6.439966 1.776753-14.909633 1.796132-18.941497 5.661744-11.601935 11.116438-26.348376 14.863736-41.499737 18.212232-22.135981 4.888622-44.299501 9.771124-66.634372 13.814207-23.80768 4.31031-47.817309 7.707764-71.772882 11.314309-3.635103 0.547713-7.454817 0.076496-12.496431-2.633512 7.126393-5.032435 14.252785-10.068949 23.094734-16.315125-9.427401-0.538534-17.108646-0.980172-24.790912-1.419771-0.180531-1.02811-0.366162-2.05724-0.549753-3.08535 18.763005-4.829465 37.521931-9.657909 59.135698-15.221738-8.322794-6.671495-15.103424-12.249603-22.056425-17.64412-6.489944-5.032435-13.33483-9.696667-19.710539-14.845376-7.553752-6.098283-13.892743-13.863164-22.331812-18.544736-16.20293-8.988822-29.417406-18.811963-25.4396-39.628129-14.848436 1.213741-27.475421 2.24797-40.105465 3.27914-0.40186-1.047489-0.804741-2.094978-1.206601-3.144507 7.100894-3.504549 14.202808-7.006039 23.141652-11.417324-28.397456-7.611889-55.923874-13.617356-83.371756-30.680105 27.865042-10.312717 52.098041-19.27604 76.817556-28.424995-1.048509-2.443801-1.514626-5.418996-3.300559-7.39464-14.296643-15.840848-8.921505-30.273144 2.377504-45.238875 12.044593-15.956102 23.136552-32.526215 34.150995-49.104487 5.711722-8.594101 13.479663-12.564768 24.338054-13.472523 11.575416-0.965893 23.18653-2.619232 34.426382-5.243564 3.589205-0.835339 6.683734-5.454694 8.526784-8.986782 0.447758-0.854718-4.731549-4.542859-7.711844-6.409368-3.446412-2.150055-7.320183-3.728938-10.593204-7.558852 7.686345 0 15.367591 0 26.785934 0-10.557505-35.535068-18.132676-70.022647-41.120316-99.937789 1.070948-0.647668 2.142916-1.296357 3.216923-1.945045 10.863491 9.073478 21.725961 18.145936 33.616542 28.080251-0.645629-4.546938-1.114806-7.828118-1.582963-11.110318 0.915915-0.483456 1.829791-0.965893 2.743666-1.451389 10.300478 12.419935 19.740118 25.570154 31.305334 36.912001 4.912081 4.817225 14.039616 6.837747 21.678023 8.444168 82.701649 17.400352 160.453479 45.212356 232.122326 91.782267-12.614745-27.710009-24.278897-53.325041-35.943048-78.940072 1.246379-0.840439 2.493778-1.680878 3.741178-2.522337 17.399332 17.095387 35.393295 33.723636 51.983806 51.448332 10.954266 11.70087 19.982866 24.916366 29.682593 37.573949 4.321529 5.640325 8.547183 7.258986 16.306965 4.154258 19.875771-7.946433 34.66607-19.296439 43.735468-38.15736 11.112358-23.110034 24.998982-45.110361 39.414959-70.647877-9.456979-7.234507-19.933908-17.327935-32.523155-24.20852-9.626291-5.260904-17.561504-10.479989-23.344622-19.443312-6.546041-10.158705-14.853536-19.367836-26.229042-33.877649-3.971686 6.141121-6.479744 10.680919-9.64363 14.799479-12.970708 16.883237-36.31125 21.493412-54.809069 9.43556-16.461998-10.728857-32.655748-13.657134-52.593737-8.836849-9.361104 2.26429-21.002816-1.958305-31.248217-4.476562-13.067603-3.210804-19.132227-1.163763-21.112971 11.197014-2.05622 12.836074-10.282119 17.808332-22.893804 20.737629-19.6983 4.574477-38.221617 5.993228-55.702545-6.370609-4.830485-3.416833-11.921179-4.617315-18.213252-5.785158-12.669822-2.349965-25.44164-4.497981-38.285874-5.729061-9.310106-0.892457-18.808903-0.174411-28.746279-0.174411 0.442658-1.458529 1.038309-3.419893 1.776753-5.857575-4.525519-0.831259-8.686917-1.595202-12.846274-2.359145 19.472891-7.211049 39.201789-14.123252 60.240304-10.102608 18.537596 3.546367 27.863002 2.04296 33.151444-14.401698 14.497573-45.125661 56.509326-50.760886 97.107427-58.629802 4.731549-0.916935 11.270451 1.680878 15.690915 4.390886 22.697974 13.910082 46.666805 10.773735 71.994211 3.582065-7.218188-2.787524-14.257885-6.082984-21.691283-8.265677-18.582474-5.453674-37.053774-11.678431-56.096246-15.270696-33.699157-6.35327-57.061119-27.641673-82.847502-45.34801-14.039616-9.64261-26.426912-21.294522-39.506754-31.995841-20.891642 10.626862-42.898089 21.822856-64.908616 33.019871-0.936314-1.161723-1.873649-2.322427-2.808943-3.48313 8.968423-10.843092 17.937866-21.684143 29.203217-35.303539-57.303867 30.15177-113.007432 55.325163-176.23211 61.54992-0.890417-1.202521-1.781853-2.405043-2.67533-3.607564 23.841338-18.583494 47.679616-37.170048 71.520954-55.754563-0.178491-0.582392-0.355963-1.165803-0.531394-1.748195-43.187755 17.555384-86.37245 35.110769-129.557145 52.666153 31.107464-39.937173 69.747261-72.800992 111.337773-103.448458-55.903475 17.156584-109.393748 40.168702-166.519124 53.270984-0.840439-1.22394-1.681898-2.447881-2.524377-3.671821 11.9018-9.814982 22.723472-21.092572 35.887971-29.193017 53.915592-33.169803 106.517488-68.796667 163.51537-96.911597C251.930514 40.817933 307.464768 23.345165 361.882175 4.889164c16.790422-5.693363 36.763088-4.92636 55.253767-4.764188 26.844072 0.236628 53.661625 3.635103 80.498556 3.749337 21.522991 0.090776 39.659747 6.167639 56.863248 17.270818 4.960018 3.198564 12.257763 4.335809 18.587574 4.640774 23.902535 1.149484 47.849948 1.564604 71.781041 2.25409 0.160132 1.677818 0.318224 3.356656 0.476317 5.033455-8.269757 2.414222-16.542574 4.827425-26.349396 7.689405 20.682552 5.201746 39.963692 10.05059 59.242792 14.899434-0.116274 1.474848-0.233569 2.945616-0.350863 4.420465-15.855127 1.520746-31.706175 3.041492-50.148916 4.811106 16.468117 9.582433 31.321653 18.222432 46.175189 26.863451-0.717025 1.553384-1.43609 3.106769-2.146995 4.657093-22.525602-5.162988-45.052224-10.325977-72.366493-16.589491 3.242422 7.316103 4.251153 12.71266 7.558852 16.378362 5.755579 6.374689 13.169598 11.470361 19.400474 17.524786 3.002734 2.917058 4.892702 6.792869 7.287545 10.233161-0.695606 0.8129-1.391212 1.627841-2.086818 2.440741-9.124475-2.826282-18.246911-5.651545-30.728042-9.517156 19.251562 51.715559 37.694303 101.246385 56.139084 150.785371 18.125537-5.526091 25.23867-25.047939 13.833586-37.910532-10.639101-11.995635-22.041126-23.420098-33.005591-35.176046-11.614174-12.452573-11.850802-20.241933 0.265187-32.263067 20.468362-20.31231 46.009957-32.105995 76.056673-35.321898 16.298806-1.744115 32.687367-2.815063 51.013834-4.356208-18.221412-12.476032-8.647139-31.118683-14.642406-46.958511 26.932807 27.798745 63.417449 36.862023 99.808255 46.143571 20.362288 5.194607 39.898415 12.459713 53.091472 28.201625 11.516259 13.74077 27.846683 16.508915 44.351518 19.69932 22.174739 4.286851 24.584882 9.988373 12.446453 27.131698-9.24177 13.051284-23.301784 18.386644-38.461305 22.57354-9.131615 2.522337-18.382564 4.72033-27.416264 7.516014-14.963691 4.632614-16.172332 7.304884-10.510588 20.891642 0.758843 1.823671 1.622741 3.607564 0.850639 7.467056-6.462405-3.721799-12.92787-7.445637-20.154218-11.609074-20.480602 17.84913-22.933582 42.778755-31.872427 67.517649 5.364939-1.760434 8.224879-2.698788 13.252214-4.347028-5.678063 10.782914-10.315777 19.585085-16.510955 31.349192 6.113582 0 10.86961 0.994452 14.7801-0.243768 5.213986-1.653339 9.902697-4.864143 14.588349-7.717964 12.393416-7.547632 25.002041-12.629024 40.752114-13.505162 10.526907-0.587491 20.434704-8.492106 30.883075-12.565788 12.822815-5.003876 25.936316-9.398842 38.891724-14.124272 5.197667-1.894048 10.293338-4.011464 15.466526-5.94631 7.318143-2.733467 14.668925-5.391457 22.001348-8.082086 1.23414 1.529925 2.47134 3.058831 3.705479 4.587736-7.480315 4.328669-14.957571 8.656318-22.437886 12.983967 1.139284 1.098486 2.280609 2.199013 3.418873 3.297499 9.954715 1.460569 19.90943 2.920118 29.863124 4.382726 0.144833 0.967933 0.288646 1.938925 0.437559 2.909918-9.736445 2.282649-19.468811 4.564278-32.882177 7.708784 8.928645 5.53221 15.870426 9.831301 22.810168 14.128351-0.106075 0.833299-0.20909 1.667619-0.316185 2.500918-7.759782-0.594631-15.566481-0.893476-23.273226-1.867529-7.258986-0.914895-11.07666 0.61605-15.036107 7.329363-5.75048 9.751745-14.722982 17.919507-22.286934 26.784914-4.424544 5.184407-8.806251 10.395333-13.174698 15.618499-4.417405 5.286402-7.79956 11.786546-13.369508 15.700095-20.590756 14.475134-41.479338 28.672842-63.108404 41.810822-11.346947 6.888744-18.592674 15.116683-20.571377 27.267351-2.921138 17.973564-11.768186 36.136839 3.69324 55.067116 3.932928-7.660847 7.59761-14.799479 12.633104-24.603241 1.374893 6.495043 2.236751 10.563625 3.589205 16.946474 3.140427-8.557383 5.502632-14.994289 9.120395-24.856189 8.507405 26.991964 10.175024 51.474851 2.923178 74.408433-8.947004 28.290361-22.270615 55.564852-35.510589 82.534377-6.455265 13.145119-17.189222 24.511445-25.615032 36.891602-2.168414 3.190404-3.985966 7.126393-4.182816 10.798214-1.363674 25.575253-13.436825 44.840074-37.163929 59.121418-10.475909 6.305333-19.459632 15.428788-27.133737 24.647099-9.614051 11.552977-6.98156 24.470647 5.977929 33.162664 28.256703 18.948636 56.984623 37.305702 85.637066 55.983031-11.201094 0-23.145732 0-35.094449 0-0.586471 0.933255-1.174983 1.864469-1.763494 2.797724 30.523032 5.281303 49.940846 24.803151 73.957615 45.114441-14.98103-2.698788-26.421812-4.964098-37.94929-6.794909-25.592593-4.063482-51.122968-8.731794-76.890992-11.546857-16.567053-1.811432-29.690753-7.229408-40.266617-18.979235-9.107136-10.116887-12.469912-9.871079-22.703073-0.61095-6.608258 5.976909-13.290972 11.878341-19.940028 17.815472-1.093387-0.60789-2.188813-1.215781-3.28322-1.824691 1.887928-6.276774 3.736078-12.564768 5.686223-18.825222 2.013382-6.453225 4.132839-12.876872 6.660275-20.734569-51.360617-9.319286-99.49921-25.118316-141.348791-56.167642-19.230143 14.092653-32.62515 31.507284-39.780101 52.777328-1.01791 3.028232 0.62115 6.924443 1.467708 10.329037 4.50818 18.103098 8.647139 36.300031 13.913142 54.219537 4.453103 15.150342 18.391744 25.536495 32.644529 28.226104 40.394111 7.621069 61.095022 35.465711 84.33459 61.362249C639.558541 1004.494503 644.528759 1010.902851 652.211025 1020.1538zM399.993638 565.279431c0.384521-1.140304 0.771082-2.282649 1.155604-3.424993-27.391785-12.323039-54.814168-24.591001-82.156996-37.005836-8.473747-3.850312-16.261067-9.423321-25.317206-0.023459-2.05214 2.126596-8.943944 1.169883-13.380728 0.454898-42.625762-6.866305-35.90327-7.649627-57.942356 22.893804-7.417078 10.280079-4.988577 25.081598 5.079352 33.202442 7.424218 5.988128 15.091184 11.729428 23.833178 18.493739 10.792094-11.009343 23.19265-19.845173 41.528296-15.967322 3.184285 0.676227 7.366081-2.566195 13.016606-4.740729-9.992453-3.569826-17.923586-6.404268-25.84962-9.23769 0.313125-1.547265 0.626249-3.095549 0.941414-4.644854C320.598667 565.279431 360.296153 565.279431 399.993638 565.279431zM773.120011 293.931856c-15.936723 13.797887-31.112564 18.932317-49.280938 9.993473-2.297948-1.131125-7.014198-0.369222-9.356004 1.138265-11.619274 7.476236-22.815268 15.493045-34.417202 23.494555 1.881808 4.92738 2.67635 10.420832 5.758639 14.467995 11.239852 14.76684 23.070256 29.178738 35.187265 43.360127 1.509526 1.764514 6.36551 2.311207 9.130595 1.618661 1.919546-0.480397 3.588185-3.90845 4.194036-6.267595 2.274489-8.834809 3.579006-17.901147 6.375709-26.578885 0.694586-2.151075 5.500592-4.175676 8.635919-4.50818 8.022929-0.845539 13.664274-8.156542 10.450411-15.252337-4.753988-10.490189 0.260087-20.367387 8.436009-24.466567C777.606773 306.238576 773.205687 302.000683 773.120011 293.931856zM289.740071 447.682222c-1.053609 1.02913-2.104157 2.05724-3.155726 3.088409 7.18963 8.540044 18.155115 16.222309 20.764148 25.802702 5.039574 18.497818 19.188325 20.885522 35.27906 23.214069 5.95855 0.863898 11.753907 2.740606 17.569664 4.323569 18.694669 5.080372 37.363839 10.238261 56.046268 15.367591 0.304965-0.696626 0.61095-1.396312 0.918975-2.091918C374.686631 494.152178 332.211821 470.91771 289.740071 447.682222zM788.080642 271.792815c1.950145 0.41104 3.89825 0.82514 5.848395 1.23822 2.67737-10.819633 5.355759-21.640285 8.033128-32.456858-1.84305-0.387581-3.68814-0.773122-5.529151-1.158664C793.649571 250.207607 790.864087 260.999701 788.080642 271.792815z" p-id="1801"></path></svg>